<?xml version="1.0" encoding="utf-8"?>
<svg xmlns="http://www.w3.org/2000/svg" viewBox="0 0 512 512">
  <path d="M 239.891 15.985 C 239.899 7.148 247.069 -0.008 255.906 0 C 304.332 0.379 350.394 13.838 387.421 36.129 C 424.531 58.469 456.234 91.451 477.381 128.112 C 498.527 164.773 511.205 208.734 511.962 252.054 C 512.717 295.277 501.303 341.905 477.375 384.04 C 452.868 425.841 418.213 459.047 380.423 480.004 C 342.547 501.008 298.154 512.001 255.852 512.001 C 213.55 512.001 169.157 501.008 131.281 480.004 C 93.491 459.048 58.836 425.841 34.329 384.04 C -1.617 320.197 -8.368 244.726 11.468 180.516 C 21.41 148.332 38.561 116.66 60.711 90.503 C 82.825 64.388 139.848 29.472 139.848 29.472 C 140.993 28.365 139.848 29.472 139.848 29.472 C 144.115 25.703 150.079 24.52 155.461 26.375 C 160.843 28.23 164.812 32.836 165.851 38.434 C 166.89 44.031 164.837 49.755 160.479 53.417 C 160.479 53.417 160.116 53.628 160.479 53.417 C 160.479 53.417 144.696 61.564 137.807 65.827 C 130.925 70.086 124.689 74.424 118.411 79.296 C 105.869 89.029 95.154 99.349 85.133 111.183 C 65.102 134.838 51.064 160.765 42.044 189.961 C 23.956 248.513 28.193 310.929 62.047 368.046 C 83.687 406.216 112.486 432.989 146.802 452.018 C 181.032 471 217.397 480 255.854 480 C 294.311 480 330.676 471 364.906 452.018 C 399.222 432.988 428.02 406.216 449.66 368.046 C 471.88 330.209 480.654 291.867 479.969 252.613 C 479.285 213.457 468.891 177.435 449.664 144.1 C 430.436 110.765 404.462 83.736 370.92 63.544 C 337.295 43.302 299.729 31.706 255.879 32 C 247.042 31.992 239.886 24.822 239.894 15.985 Z" style="" transform="matrix(0.4848090708255768, 0.8746200203895569, -0.8746200203895569, 0.4848090708255768, 355.79168701171875, -92.01371002197266)"/>
  <path d="M 391.485 108.639 C 386.572 111.183 383.394 116.159 383.151 121.686 C 382.908 127.213 385.638 132.448 390.309 135.413 C 394.98 138.378 400.879 138.62 405.777 136.048 C 405.777 136.048 404.751 136.584 405.777 136.048 C 405.777 136.048 421.768 130.771 429.83 125.756 C 437.945 120.709 445.92 113.799 452.172 106.605 C 464.505 92.415 474.165 73.039 481.798 51.396 C 484.623 43.315 480.362 34.474 472.281 31.649 C 464.2 28.824 455.359 33.085 452.534 41.166 C 445.678 60.972 438.587 74.978 428.774 86.268 C 423.953 91.815 419.506 95.669 413.457 99.431 C 410.417 101.322 407.701 102.736 404.237 104.222 C 400.742 105.72 391.484 108.638 391.484 108.638 C 391.997 108.439 391.484 108.638 391.484 108.638 Z" style=""/>
  <path d="M 355.477 95.124 C 352.954 86.944 344.277 82.358 336.097 84.882 C 327.917 87.405 323.331 96.082 325.855 104.262 C 325.855 104.262 325.608 103.199 325.855 104.262 C 325.855 104.262 327.279 119.983 330.231 129.549 C 333.165 139.059 338.07 149.686 344.231 158.469 C 356.386 175.796 378.465 191.021 406.288 196.506 C 414.732 197.913 422.718 192.209 424.125 183.765 C 425.532 175.321 419.828 167.335 411.384 165.928 C 390.196 163.245 378.922 153.942 369.61 140.667 C 365.037 134.148 362.181 127.955 359.854 120.411 C 357.544 112.924 355.478 95.124 355.478 95.124 C 355.725 96.187 355.478 95.124 355.478 95.124 Z" style=""/>
</svg>